<svg width="0" height="0" class="hidden">
  <symbol id="notification" xmlns="http://www.w3.org/2000/svg" viewBox="0 0 30 30">
    <g id="bell">
      <rect id="Rectangle_1554" width="30" height="30" fill="#648dc4" opacity="0"></rect>
      <path id="Path_2815" d="M24.8,18.441l-2.24-2.253V10.637a8.538,8.538,0,0,0-7.244-8.563,8.389,8.389,0,0,0-9.484,8.3v5.812L3.6,18.441a2.041,2.041,0,0,0,1.444,3.472H9.221v.423A4.779,4.779,0,0,0,14.2,26.891a4.779,4.779,0,0,0,4.978-4.555v-.423h4.182A2.041,2.041,0,0,0,24.8,18.441Zm-8.115,3.9A2.34,2.34,0,0,1,14.2,24.4a2.34,2.34,0,0,1-2.489-2.066v-.423h4.978ZM6.122,19.424,7.59,17.955a2.489,2.489,0,0,0,.734-1.767V10.376a5.887,5.887,0,0,1,2.016-4.431A5.812,5.812,0,0,1,15,4.489a6.049,6.049,0,0,1,5.078,6.1v5.6a2.489,2.489,0,0,0,.722,1.767l1.481,1.469Z" transform="translate(0.736 0.49)" fill="#648dc4"></path>
    </g>
  </symbol>
  <symbol id="user" xmlns="http://www.w3.org/2000/svg" viewBox="0 0 33 33">
    <g id="person">
      <rect id="Rectangle_1553" width="33" height="33" fill="#648dc4" opacity="0"></rect>
      <path id="Path_2813" d="M13.481,13.961A5.481,5.481,0,1,0,8,8.481,5.481,5.481,0,0,0,13.481,13.961Zm0-8.221a2.74,2.74,0,1,1-2.74,2.74A2.74,2.74,0,0,1,13.481,5.74Z" transform="translate(2.961 1.11)" fill="#648dc4"></path>
      <path id="Path_2814" d="M14.591,13A9.591,9.591,0,0,0,5,22.591a1.37,1.37,0,0,0,2.74,0,6.851,6.851,0,0,1,13.7,0,1.37,1.37,0,1,0,2.74,0A9.591,9.591,0,0,0,14.591,13Z" transform="translate(1.851 4.812)" fill="#648dc4"></path>
    </g>
  </symbol>
  <symbol version="1.1" id="share" xmlns="http://www.w3.org/2000/svg" xmlns:xlink="http://www.w3.org/1999/xlink" x="0px" y="0px" xml:space="preserve" viewBox="0 0 458.624 458.624">
    <g>
      <g>
        <path d="M339.588,314.529c-14.215,0-27.456,4.133-38.621,11.239l-112.682-78.67c1.809-6.315,2.798-12.976,2.798-19.871
			c0-6.896-0.989-13.557-2.798-19.871l109.64-76.547c11.764,8.356,26.133,13.286,41.662,13.286c39.79,0,72.047-32.257,72.047-72.047
			C411.634,32.258,379.378,0,339.588,0c-39.79,0-72.047,32.257-72.047,72.047c0,5.255,0.578,10.373,1.646,15.308l-112.424,78.491
			c-10.974-6.759-23.892-10.666-37.727-10.666c-39.79,0-72.047,32.257-72.047,72.047s32.256,72.047,72.047,72.047
			c13.834,0,26.753-3.907,37.727-10.666l113.292,79.097c-1.629,6.017-2.514,12.34-2.514,18.872c0,39.79,32.257,72.047,72.047,72.047
			c39.79,0,72.047-32.257,72.047-72.047C411.635,346.787,379.378,314.529,339.588,314.529z"></path>
      </g>
    </g>
    <g></g>
    <g></g>
    <g></g>
    <g></g>
    <g></g>
    <g></g>
    <g></g>
    <g></g>
    <g></g>
    <g></g>
    <g></g>
    <g></g>
    <g></g>
    <g></g>
    <g></g>
  </symbol>
  <symbol id="favourite" xmlns="http://www.w3.org/2000/svg" viewBox="0 0 34 34">
    <g id="heart">
      <rect id="Rectangle_1514" width="34" height="34" fill="#648dc4" opacity="0"></rect>
      <path id="Path_2763" d="M16.076,27.927a1.407,1.407,0,0,1-1-.408L4.14,16.569A7.365,7.365,0,1,1,14.555,6.153l1.52,1.52,1.52-1.52A7.365,7.365,0,1,1,28.011,16.569L17.075,27.519a1.408,1.408,0,0,1-1,.408ZM9.348,6.815A4.5,4.5,0,0,0,6.139,8.138a4.56,4.56,0,0,0,0,6.432l9.937,9.951,9.937-9.951a4.56,4.56,0,0,0,0-6.432,4.673,4.673,0,0,0-6.418,0l-2.519,2.533a1.407,1.407,0,0,1-2,0L12.557,8.138A4.5,4.5,0,0,0,9.348,6.815Z" transform="translate(0.814 1.63)" fill="#648dc4"></path>
    </g>
  </symbol>
  <symbol version="1.1" id="favourite-filled" xmlns="http://www.w3.org/2000/svg" xmlns:xlink="http://www.w3.org/1999/xlink" x="0px" y="0px" xml:space="preserve" viewBox="0 0 512 512">
    <g>
      <g>
        <path d="M478.105,80.067c-45.192-45.192-118.464-45.192-163.656,0L256,138.515l-58.448-58.448
			c-45.192-45.192-118.464-45.192-163.656,0c-45.194,45.192-45.194,118.464-0.002,163.656l222.105,222.105l222.105-222.105
			C523.299,198.531,523.299,125.259,478.105,80.067z" fill="#648dc4"></path>
      </g>
    </g>
    <g></g>
    <g></g>
    <g></g>
    <g></g>
    <g></g>
    <g></g>
    <g></g>
    <g></g>
    <g></g>
    <g></g>
    <g></g>
    <g></g>
    <g></g>
    <g></g>
    <g></g>
  </symbol>
</svg>