<svg width="0" height="0" class="hidden">
  <symbol id="notification" xmlns="http://www.w3.org/2000/svg" viewBox="0 0 30 30">
    <g id="bell">
      <rect id="Rectangle_1554" width="30" height="30" fill="#648dc4" opacity="0"></rect>
      <path id="Path_2815" d="M24.8,18.441l-2.24-2.253V10.637a8.538,8.538,0,0,0-7.244-8.563,8.389,8.389,0,0,0-9.484,8.3v5.812L3.6,18.441a2.041,2.041,0,0,0,1.444,3.472H9.221v.423A4.779,4.779,0,0,0,14.2,26.891a4.779,4.779,0,0,0,4.978-4.555v-.423h4.182A2.041,2.041,0,0,0,24.8,18.441Zm-8.115,3.9A2.34,2.34,0,0,1,14.2,24.4a2.34,2.34,0,0,1-2.489-2.066v-.423h4.978ZM6.122,19.424,7.59,17.955a2.489,2.489,0,0,0,.734-1.767V10.376a5.887,5.887,0,0,1,2.016-4.431A5.812,5.812,0,0,1,15,4.489a6.049,6.049,0,0,1,5.078,6.1v5.6a2.489,2.489,0,0,0,.722,1.767l1.481,1.469Z" transform="translate(0.736 0.49)" fill="#648dc4"></path>
    </g>
  </symbol>
  <symbol id="user" xmlns="http://www.w3.org/2000/svg" viewBox="0 0 33 33">
    <g id="person">
      <rect id="Rectangle_1553" width="33" height="33" fill="#648dc4" opacity="0"></rect>
      <path id="Path_2813" d="M13.481,13.961A5.481,5.481,0,1,0,8,8.481,5.481,5.481,0,0,0,13.481,13.961Zm0-8.221a2.74,2.74,0,1,1-2.74,2.74A2.74,2.74,0,0,1,13.481,5.74Z" transform="translate(2.961 1.11)" fill="#648dc4"></path>
      <path id="Path_2814" d="M14.591,13A9.591,9.591,0,0,0,5,22.591a1.37,1.37,0,0,0,2.74,0,6.851,6.851,0,0,1,13.7,0,1.37,1.37,0,1,0,2.74,0A9.591,9.591,0,0,0,14.591,13Z" transform="translate(1.851 4.812)" fill="#648dc4"></path>
    </g>
  </symbol>
</svg>